# xmcd
#
# Track frame offsets: 
#        150
#        11166
#        28407
#        38863
#        54188
#        64595
#        80466
#        94232
#        106728
#        125382
#        141535
#        159035
#
# Disc length: 2438 seconds
#
# Revision: 3
# Processed by: cddbd v1.5.2PL0 Copyright (c) Steve Scherf et al.
# Submitted via: ExactAudioCopy v0.95a4
#
DISCID=9709840c
DTITLE=Lindi Ortega - Little Red Boots
DYEAR=2011
DGENRE=Country
TTITLE0=Little Lie
TTITLE1=When All The Stars Align
TTITLE2=Blue Bird
TTITLE3=Angels
TTITLE4=I'm No Elvis Presley
TTITLE5=Little Red Boots
TTITLE6=Dying Of Another Broken Heart
TTITLE7=All My Friends
TTITLE8=Fall Down Or Fly
TTITLE9=Jimmy Dean
TTITLE10=Black Fly
TTITLE11=So Sad
EXTD=Year: 2011
EXTT0=
EXTT1=
EXTT2=
EXTT3=
EXTT4=
EXTT5=
EXTT6=
EXTT7=
EXTT8=
EXTT9=
EXTT10=
EXTT11=
PLAYORDER=
